<?xml version="1.0" standalone="no"?>
<!DOCTYPE svg PUBLIC "-//W3C//DTD SVG 20010904//EN"
 "http://www.w3.org/TR/2001/REC-SVG-20010904/DTD/svg10.dtd">
<svg version="1.0" xmlns="http://www.w3.org/2000/svg"
 width="1024.000000pt" height="1024.000000pt" viewBox="0 0 1024.000000 1024.000000"
 preserveAspectRatio="xMidYMid meet">

<g transform="translate(0.000000,1024.000000) scale(0.100000,-0.100000)"
fill="#000000" stroke="none">
<path d="M3730 7611 c-770 -118 -1377 -694 -1481 -1407 -19 -131 -20 -177 -16
-1148 4 -1100 1 -1051 62 -1261 134 -464 489 -875 938 -1085 95 -45 271 -106
333 -116 38 -6 42 -4 48 19 7 28 -2 1036 -9 1048 -3 4 -30 21 -62 39 -126 71
-239 219 -294 385 l-24 70 -3 840 c-2 575 1 867 8 925 22 165 93 331 193 447
140 162 302 257 522 305 l100 22 1570 -2 c932 -2 1575 1 1583 6 11 7 286 726
331 865 24 73 192 67 -1848 66 -1699 -1 -1845 -2 -1951 -18z"/>
<path d="M7332 6198 c-8 -8 -12 -50 -12 -125 l0 -113 -1392 0 c-1326 0 -1397
-1 -1485 -19 -237 -49 -450 -232 -532 -456 -47 -128 -52 -201 -49 -624 3 -346
5 -385 20 -394 19 -12 5 -20 418 242 191 121 275 168 335 189 l80 27 1303 3
1302 2 0 -164 c0 -133 3 -166 15 -176 8 -7 20 -10 27 -7 11 4 118 95 498 426
47 40 163 141 258 223 94 83 172 156 172 163 0 18 -917 815 -938 815 -4 0 -13
-5 -20 -12z m97 -62 c25 -23 78 -68 116 -101 39 -33 72 -62 75 -65 3 -3 66
-57 140 -120 284 -242 430 -372 425 -380 -3 -5 0 -12 6 -16 8 -4 9 -3 5 4 -14
23 8 12 41 -20 40 -39 41 -57 4 -83 -29 -20 -510 -437 -804 -697 -100 -89
-102 -87 -102 114 l0 166 -35 4 c-19 2 -602 4 -1295 3 -1392 0 -1301 4 -1443
-62 -31 -15 -63 -27 -69 -26 -7 0 -11 -2 -9 -6 3 -4 -45 -38 -106 -77 -124
-77 -134 -82 -123 -64 5 9 4 11 -4 6 -6 -4 -9 -11 -6 -16 3 -5 -23 -25 -57
-46 -35 -21 -106 -66 -159 -100 -103 -67 -149 -86 -150 -63 0 8 0 200 1 427 1
466 5 494 77 641 56 111 186 240 308 302 97 50 180 75 217 64 18 -5 20 -4 8 4
-10 7 417 11 1407 13 782 2 1425 6 1429 10 4 4 7 43 6 85 0 43 1 97 4 121 5
39 7 41 26 31 12 -7 42 -30 67 -53z"/>
<path d="M4065 5700 c-3 -5 -1 -10 4 -10 6 0 11 5 11 10 0 6 -2 10 -4 10 -3 0
-8 -4 -11 -10z"/>
<path d="M4360 5120 c0 -5 5 -10 11 -10 5 0 7 5 4 10 -3 6 -8 10 -11 10 -2 0
-4 -4 -4 -10z"/>
<path d="M3892 4815 c0 -16 2 -22 5 -12 2 9 2 23 0 30 -3 6 -5 -1 -5 -18z"/>
<path d="M3891 4729 c0 -16 5 -29 14 -33 8 -3 15 -1 15 4 0 6 -4 10 -9 10 -5
0 -12 10 -14 23 -4 20 -4 19 -6 -4z"/>
<path d="M3891 4664 c0 -11 3 -14 6 -6 3 7 2 16 -1 19 -3 4 -6 -2 -5 -13z"/>
<path d="M3891 4607 c1 -21 3 -25 6 -12 3 11 10 23 15 26 5 3 3 9 -6 12 -13 5
-16 0 -15 -26z"/>
<path d="M4010 4571 c-6 -12 -7 -21 -1 -21 10 0 24 30 17 37 -2 3 -9 -5 -16
-16z"/>
<path d="M3913 4553 c-28 -5 -30 -24 -3 -41 16 -10 20 -10 21 0 0 7 2 21 4 31
2 9 3 16 2 16 -1 -1 -12 -4 -24 -6z m17 -17 c0 -11 -19 -15 -25 -6 -3 5 1 10
9 10 9 0 16 -2 16 -4z"/>
<path d="M4620 4340 c-109 -9 -140 -25 -400 -203 -328 -226 -338 -233 -350
-275 -13 -49 -14 -1241 0 -1276 l10 -26 355 0 356 0 42 39 42 40 5 360 c5 344
6 361 26 388 47 65 28 63 675 63 457 0 589 3 596 13 13 16 283 827 283 849 0
9 -5 20 -12 24 -16 10 -1517 14 -1628 4z"/>
</g>
</svg>
